<svg id="Capa_1" enable-background="new 0 0 512 512" height="512" viewBox="0 0 512 512" width="512" xmlns="http://www.w3.org/2000/svg"><g><g><g><g><path d="m400.401 97.71c4.14 0 7.495-3.356 7.495-7.496v-51.676c0-21.25-17.287-38.538-38.537-38.538h-226.718c-21.25 0-38.538 17.288-38.538 38.538v434.925c0 21.25 17.288 38.538 38.538 38.538h226.717c21.25 0 38.538-17.288 38.538-38.538v-348.769c0-4.14-3.355-7.495-7.495-7.495s-7.496 3.356-7.496 7.495v348.768c0 12.984-10.563 23.547-23.547 23.547h-226.717c-12.984 0-23.547-10.563-23.547-23.547v-434.924c0-12.984 10.563-23.547 23.547-23.547h26.894l6.527 29.179c1.814 8.11 8.884 13.774 17.195 13.774h125.487c8.311 0 15.38-5.664 17.195-13.774l6.527-29.18h26.893c12.984 0 23.547 10.563 23.547 23.547v51.677c-.001 4.14 3.355 7.496 7.495 7.496zm-79.092-56.811c-.27 1.21-1.325 2.055-2.565 2.055h-125.487c-1.24 0-2.294-.845-2.565-2.055l-5.794-25.907h142.206z"/><path d="m226.517 462.494c-4.14 0-7.495 3.356-7.495 7.496s3.355 7.496 7.495 7.496h58.965c4.14 0 7.495-3.356 7.495-7.496s-3.355-7.496-7.495-7.496z"/><path d="m340.586 386.75c0-16.174-13.158-29.331-29.331-29.331h-64.499c-4.14 0-7.496 3.356-7.496 7.496s3.355 7.495 7.496 7.495h64.499c7.907 0 14.34 6.433 14.34 14.34s-6.433 14.341-14.34 14.341h-110.509c-7.907 0-14.34-6.433-14.34-14.341 0-7.907 6.433-14.34 14.34-14.34h11.281c4.14 0 7.495-3.356 7.495-7.495s-3.355-7.496-7.495-7.496h-11.281c-16.173 0-29.331 13.158-29.331 29.331s13.158 29.332 29.331 29.332h110.509c16.172-.001 29.331-13.159 29.331-29.332z"/><path d="m173.299 261.072c0 4.14 3.355 7.495 7.496 7.495h150.411c4.14 0 7.496-3.356 7.496-7.495s-3.355-7.496-7.496-7.496h-150.411c-4.141 0-7.496 3.356-7.496 7.496z"/><path d="m180.795 301.962h150.411c4.14 0 7.496-3.356 7.496-7.495s-3.355-7.496-7.496-7.496h-150.411c-4.14 0-7.496 3.356-7.496 7.496s3.355 7.495 7.496 7.495z"/><path d="m198.381 320.365c-4.14 0-7.496 3.356-7.496 7.496s3.355 7.495 7.496 7.495h115.238c4.14 0 7.496-3.356 7.496-7.495s-3.355-7.496-7.496-7.496z"/><path d="m298.242 96.469c-12.435-1.5-24.824 2.426-33.986 10.769-3.378 3.076-6.097 6.448-8.257 9.687-2.161-3.239-4.88-6.611-8.258-9.687-9.163-8.343-21.55-12.266-33.987-10.769-12.418 1.497-23.5 8.24-30.402 18.501-5.096 7.575-7.581 16.655-7.39 26.988.219 11.802 3.969 23.474 10.849 33.751 4.714 7.042 23.016 31.641 60.617 52.542 2.643 1.469 5.607 2.204 8.57 2.204s5.927-.735 8.569-2.204c37.605-20.902 55.904-45.501 60.617-52.542 6.879-10.277 10.63-21.948 10.85-33.751.19-10.335-2.296-19.415-7.39-26.988-6.902-10.262-17.984-17.005-30.402-18.501zm14.486 70.901c-4.242 6.337-20.773 28.508-55.444 47.779-.793.441-1.779.44-2.573 0-34.667-19.271-51.201-41.443-55.443-47.779-5.276-7.884-8.152-16.767-8.317-25.69-.134-7.199 1.494-13.37 4.839-18.343 4.468-6.642 11.67-11.01 19.758-11.985 1.142-.138 2.281-.205 3.414-.205 6.919 0 13.584 2.53 18.685 7.175 8.128 7.401 11.105 17.601 11.125 17.673.894 3.239 3.839 5.472 7.199 5.487h.032c3.347 0 6.294-2.236 7.213-5.457.029-.102 3.006-10.302 11.133-17.703 5.936-5.406 13.992-7.948 22.098-6.97 8.089.975 15.291 5.344 19.76 11.985 3.344 4.972 4.973 11.144 4.839 18.343-.165 8.923-3.042 17.807-8.318 25.69z"/></g></g></g></g></svg>